<?xml version="1.0" encoding="utf-8"?>
<svg viewBox="0 0 18 18" fill="none" xmlns="http://www.w3.org/2000/svg">
<path fill-rule="evenodd" clip-rule="evenodd" d="M8.04628 0.760841C5.85881 2.0974 6.24255 1.72916 4.82492 3.85243L3.55867 5.74909L4.10421 7.78586L4.64974 9.82263L5.01603 10.1632L5.38232 10.5037L5.12293 10.4608C4.9802 10.4373 4.81111 10.406 4.74716 10.3915C4.65694 10.371 4.56893 10.8111 4.35444 12.3557C4.20239 13.4506 4.076 14.3705 4.07363 14.3998C4.07126 14.4292 4.86152 15.0632 5.82975 15.8086L7.59012 17.164L8.85815 17.0471C9.55548 16.9829 10.2023 16.9201 10.2955 16.9075C10.4006 16.8933 10.2576 16.8039 9.91838 16.6718L9.37183 16.4589L9.01367 15.111C8.7581 14.1493 8.60664 13.7253 8.48474 13.6312C8.33913 13.5188 8.28186 13.252 8.09753 11.8268C7.9786 10.9069 7.88127 10.0995 7.88127 10.0325C7.88127 9.94174 7.70897 9.89574 7.20359 9.85169C6.83086 9.81916 6.5259 9.7652 6.5259 9.73182C6.5259 9.69845 6.89228 9.61018 7.34005 9.53572C7.78783 9.46126 8.17453 9.38002 8.19935 9.35512C8.22417 9.3303 8.33133 8.49904 8.43739 7.50801L8.63019 5.70597L8.38275 5.44777C8.12024 5.17382 8.06712 5.04964 8.24129 5.11681C8.32117 5.14765 8.34184 5.00669 8.3254 4.54239L8.30363 3.92706L8.90389 5.53655C9.23401 6.42177 9.53015 7.17324 9.562 7.20636C9.6102 7.25659 12.7076 7.03939 12.7734 6.9812C12.8424 6.92004 13.1309 5.03363 13.132 4.63617C13.1327 4.3739 13.0575 3.72587 12.9647 3.19609C12.8721 2.66631 12.7958 1.9988 12.7953 1.71265C12.7945 1.2619 12.7566 1.13755 12.5109 0.780833L12.2273 0.369225L10.4946 0.346354L8.76183 0.323566L8.04628 0.760841ZM14.2465 1.99812L13.1995 2.02641L13.2492 2.3838C13.3979 3.4542 13.4865 4.6631 13.4477 5.09182L13.4035 5.57891H15.3952C17.1192 5.57891 17.3805 5.56205 17.3388 5.45353C17.3123 5.38449 17.2113 4.74603 17.1142 4.03464C16.9678 2.96237 16.8978 2.67589 16.7052 2.35992L16.4728 1.97872L15.8831 1.97423C15.5588 1.97177 14.8223 1.98245 14.2465 1.99812ZM1.98603 3.08648C1.49539 3.85361 0.794917 5.37992 0.561625 6.19043C-0.0853067 8.4383 0.10868 10.6356 1.14011 12.7413C1.71665 13.9183 2.42644 14.8871 3.45634 15.9025L4.26135 16.6963L5.20298 16.6357C6.0838 16.5791 6.2672 16.5494 6.18003 16.4774C6.16055 16.4614 5.55385 16.0178 4.8317 15.4915C4.10954 14.9654 3.50556 14.5238 3.48955 14.5103C3.47345 14.4968 3.59747 13.5999 3.76494 12.5173C3.9325 11.4347 4.05999 10.5393 4.0483 10.5277C4.03652 10.516 3.55046 10.4618 2.96807 10.4071C1.42372 10.2624 1.30708 10.1906 2.50217 10.1205C3.93216 10.0366 4.06931 10.0063 4.06931 9.77359C4.06931 9.60146 4.01585 9.5763 3.53987 9.52369C3.24872 9.4915 2.91513 9.44076 2.79865 9.41086C2.60839 9.36206 2.62135 9.35012 2.92572 9.29387C3.11208 9.2594 3.43152 9.22898 3.63551 9.22636L4.00645 9.22145L3.94876 8.71107C3.90404 8.31589 3.37892 6.19 3.18256 5.60915C3.16452 5.55595 3.58468 4.92808 4.11615 4.21388C4.76622 3.34027 5.0483 2.89698 4.97825 2.8592C4.9209 2.82836 4.41662 2.77737 3.85753 2.74594C3.29844 2.71451 2.71911 2.66809 2.5701 2.64285C2.31589 2.59965 2.28006 2.62692 1.98603 3.08648ZM13.2726 6.31876C13.2436 6.4942 13.2195 6.80102 13.2189 7.00043C13.2184 7.21475 13.1747 7.37747 13.1121 7.39814C13.0539 7.41737 12.3201 7.49234 11.4815 7.56477C10.6428 7.63719 9.80106 7.71691 9.6108 7.74198L9.26501 7.78747L9.18725 7.30369C9.10897 6.81635 8.95285 6.62525 8.86433 6.90843C8.75226 7.2671 8.47678 9.42687 8.53616 9.48142C8.572 9.51437 9.20139 9.75902 9.93481 10.0253L11.2684 10.5092L14.5939 10.5218L17.9194 10.5345L18.0695 9.68735C18.2551 8.63966 18.2196 7.29759 17.9868 6.55307L17.8279 6.04481L15.5766 6.02228L13.3253 5.99975L13.2726 6.31876ZM8.38428 10.202C8.29279 10.3121 8.30016 10.5588 8.42663 11.6209C8.51075 12.3279 8.60918 12.9826 8.64535 13.0758C8.69118 13.1939 9.06611 13.3895 9.88449 13.7222L11.0579 14.1991L13.7281 14.2509L16.3984 14.3027L16.757 12.7574C16.9542 11.9075 17.1154 11.1701 17.1151 11.1188C17.1149 11.0537 16.2107 11.0067 14.1325 10.9637L11.1502 10.9019L10.0058 10.4852C8.76903 10.0349 8.55404 9.99739 8.38428 10.202ZM9.28669 14.7064C9.44553 15.2072 9.6169 15.7508 9.66747 15.9142C9.75599 16.2002 9.79724 16.2248 10.7585 16.5624L11.7576 16.9135L13.2008 16.6941L14.644 16.4747L15.1271 15.6395C15.3929 15.1802 15.5897 14.7839 15.5646 14.7588C15.5395 14.7337 14.5326 14.6833 13.327 14.6468L11.135 14.5805L10.1039 14.1881C9.53684 13.9723 9.05594 13.7958 9.03536 13.7958C9.01469 13.7958 9.12778 14.2056 9.28669 14.7064Z" />
</svg>
